<?xml version="1.0" encoding="utf-8"?>
<!-- Generator: Adobe Illustrator 21.1.0, SVG Export Plug-In . SVG Version: 6.00 Build 0)  -->
<svg version="1.1" id="Layer_1" xmlns="http://www.w3.org/2000/svg" xmlns:xlink="http://www.w3.org/1999/xlink" x="0px" y="0px"
	 viewBox="0 0 378.66666 145.33333" style="enable-background:new 0 0 378.66666 145.33333;" xml:space="preserve">
<style type="text/css">
	.st0{fill:#FFFFFF;}
</style>
<g>
	<g id="XMLID_1_">
		<g>
			<path d="M366.67999,109.77c-0.29999,0.12-6.09,2.52-13.42999,1.54c-7.59-1.00999-17.28-4.23-26.82001-7.3
				c-0.38998-0.13-0.79999-0.25-1.20999-0.36c0.04999-0.35,0.10001-0.69,0.14999-1.06001C325.88,98.94,329.38,57.8,329.38,52.9
				c0-3.01-2.79001-3.9-6.13-3.9c-5.57001,0-12.81,2.45-12.81,2.45c1.22,2.12,1.78,10.03,2,18.94
				c-2.11002,5.91-4.45001,8.58-6.35001,8.58c-3.66998,0-4.79001-5.01-4.79001-11.14c0-8.13,1.90002-18.05,1.90002-20.17
				c0-10.13-7.91-15.04-15.60001-15.04c-6.80002,0-13.48001,3.9-13.92999,11.26c1.12-0.23,2.22998-0.23,3.12-0.23
				c7.57999,0,9.35999,5.57,9.35999,13.15c0,7.24-1.66998,16.26-1.66998,23.95c0,8.91,2.34,15.93,12.25,15.93
				c6.34998,0,12.37-6.79,15.82999-17.82c0,17.71-0.12,19.27-0.12,20.72c-2-0.22-4.12-0.33-6.23999-0.33
				c-12.70001,0-26.62003,4.01-26.62003,18.71c0,9.58,7.24002,14.6,16.04001,14.6c9.98001,0,21.83002-6.45,27.32001-19.75999
				c8.32001,2.41,19.13,5.16,25.72,5.35C360.23999,118.49,366.37,110.2,366.67999,109.77z M375.41,110.89
				c0,1.51-0.41,2.94-1.10001,4.23l0.01001,0.00999c-0.01001,0.01-0.03,0.03001-0.04001,0.05c-0.76001,1.41-1.87,2.63-3.17001,3.58
				c-3.84998,3.67-11.09,8.73-21.75998,8.73c-0.32001,0-0.64001-0.00999-0.95999-0.00999c-5.63-0.17001-13.46002-1.82-20.73001-3.7
				C319.47,136.22,306.35999,141.88,295.62,141.88c-10.67999,0-19.04999-5.02-22.95999-13.03
				c-25.93001,6.37-59.10001,10.2-95.25,10.2c-45.53,0-86.33-6.07001-113.90001-15.66c-8.63,12.7-22.31,18.5-33.56,18.5
				c-15.72,0-26.69-10.28999-26.69-25.01c0-8.37,3.67-27.07999,35.53-31.16c-0.29-16.13-1.65-31.26-3.25-35.47
				c-1.24-1.48-2.08-4.38-2.08-7.72c0-3.52,0.93-6.54,2.27-7.94c-1.73-2.76-2.68-6.02-2.68-9.51c0-10.23,8.24-21.63,20.06-21.63
				S73.17,11.2,73.17,22.3c0,3.62-1,7.33-2.87,10.61c1.89999,1.55,3.16,3.56,3.84,5.7c5.16-3.78,11.47-6.08,18.79-6.08
				c7.01,0,13.24,2.53,18.14,6.93c1.79-3.37,6.46-8.64,18.18999-8.64c2.93001,0,6.23001,0.32,9.79001,0.96l3.78999,0.68
				c2.48001-1.67,6.18001-2.92,11.68001-2.92c3.56999,0,11.95,0.6,16.78,5.77c2.53-0.93,5.41-1.62,8.36-1.62
				c0.39999,0,0.78999,0.02,1.17999,0.04c4.39-10.87,11.33-19.49,22.33-19.49c9.62,0,16.09,6.67,16.09,16.61
				c0,2.88-0.53,5.69-1.09999,7.89c2.56-0.97,5.08-1.5,7.42-1.5c4.14999,0,12.05,1.05,16.64,8.35
				c5.88-5.85,13.35001-9.53,21.14999-9.53c0.94,0,1.85001,0.04,2.73999,0.11c3.44-7.75,11.55002-12.87,21.49002-12.87
				c10.35999,0,21.28,6.28,24.17999,18.05c3.14001-0.8,7.48999-1.68,11.47-1.68c10.67999,0,15.45999,6.64,15.45999,13.23
				c0,4.24-2.20999,31.09-3.41998,44.16c7.03,2.24001,13.94998,4.31001,19.19,5.01c0.75,0.1,1.53998,0.15,2.32999,0.15
				c2.76999,0,4.97-0.62,5.85001-0.91c0.97-0.36,1.98001-0.57,3.01999-0.57C370.75,100.74,375.41,105.41,375.41,110.89z
				 M279.41,88.45c0-3.05-2.42999-5.68999-7.51001-6.2c-1.72998,4.88-5.38998,7.62-8.94,7.62c-6,0-8.42999-5.89-8.42999-12.8
				c2.84,0.71,5.57999,1.02,8.01999,1.02c12.19,0,18.49002-8.53,18.49002-16.86c0-8.03-5.79001-15.85-17.67001-15.85
				c-12.2,0-23.76999,14.22-23.76999,28.75c0,17.98,11.37,23.97,21.94,23.97C270.78,98.1,279.41,93.53,279.41,88.45z M233.58,105.4
				c5.42999,0,12.5-6.05,12.5-6.05c-9.12-0.92-11.28-7.68-11.28-15.99c0-7.38,1.64-15.99,1.64-23.06c0-7.9-2.05-13.74-10.86-13.74
				c-2.97,0-8,2.05-12.40001,6.36C213.28,52.2,213.28,51.58,213.28,51.07c0-3.69-2.14999-4.82-5.02-4.82
				c-5.43999,0-13.42999,4.41-13.42999,4.41c2.03999,6.15,2.66,11.99,2.66,17.22c0,8.31001-1.54001,15.07-1.54001,18.76
				c0,8.1,2.87001,10.77,10.05,10.77c2.66,0,5.95-0.31001,9.84-0.93c-3.37999-2.76-4.41-9.94-4.41-17.94
				c0-7.07,0.72-14.55,1.33-20.29c0.93001-0.62,1.85001-0.93,2.77-0.93c5.13,0,6.36,4.72,6.36,11.28
				c0,5.64-0.92999,12.51-0.92999,18.86C220.96001,97.2,223.12,105.4,233.58,105.4z M208.16,39.48c0,0,1.76999-4.47,1.76999-8.63
				c0-3.74-1.34999-7.28-6.75999-7.28c-9.88,0-15.59999,14.98-18.41,31.31v-6.97c0-3.75-2.18999-4.89-5.09999-4.89
				c-5.51001,0-11.65001,4.47-11.65001,4.47c2.39,5.62,3.01001,9.89,3.01001,15.81c0,7.91-0.83,14.36-0.83,19.04
				c0,7.7,4.37,9.57001,9.56999,9.57001c2.81001,0,5.73001-0.52,8.43001-1.04c-1.56-1.77-2.39-4.16-2.81-7.07
				c-0.10001-0.94-0.41-3.96001-0.41-8.01C184.97,63.09,187.88,40.42,208.16,39.48z M158.25,104.99
				c10.24001,0,14.78-6.75,14.78-6.75c-10.13-2.45-13.03999-15.13-13.03999-27.93999c0-13.16,3.14999-26.31,4.78-28.29
				c-1.52-2.1-6.06-3.15-10.25-3.15c-3.84001,0-7.22,0.94-7.45,2.68C145.56,46.78,144.39,56.68,144.39,67.15c0,2.1,0,4.31,0.12,6.41
				c-1.51999,2.91-3.14999,4.19-4.53999,4.19c-3.03,0-5.36-5.82-5.36-15.6c0-5.82,0.81999-12.92,2.8-21.19
				c-3.26001-0.58-5.94-0.81-8.15001-0.81c-9.07999,0-10.13,4.07-10.13,4.07c-0.46999,2.91-1.86,11.99-1.86,21.66
				c0,14.43,3.02,30.38,16.29,30.38c4.08,0,8.39-5.12,11.65001-13.74001C146.84,94.86,150.67999,104.99,158.25,104.99z
				 M113.11,68.18c0-13.38-6.69-26.32-20.18-26.32c-16.12,0-25.22,15.46-25.22,30.05C67.71,84.74,74.83,96.92,90.52,96.92
				C105.54,96.92,113.11,82.33,113.11,68.18z M68.43,102.4c0-2.77-1.44-5.55-6.03-7c1.57-20.02,3.02-42.58,3.02-52.95
				c0-2.41-1.93-3.26-4.59-3.26c-6.63,0-17.97,5.19-17.97,5.19c4.34,4.58,5.31,34.5,5.31,47.53v2.41
				c-26.9,0.96-35.59,11.34-35.59,22.55c0,10.38,7.84,15.68999,17.37,15.68999c10.74,0,23.64-6.88,29.43-21.11
				c1.45,0.48,2.9,0.84,4.47,1.45C63.85,112.9,68.43,107.47,68.43,102.4z M63.85,22.3c0-4.94-3.14-9.53-10.74-9.53
				c-6.03,0-10.73,6.52-10.73,12.31c0,4.58,3.01,8.68,10.73,8.68C59.75,33.76,63.85,27.85,63.85,22.3z"/>
			<path class="st0" d="M353.25,111.31c7.34,0.98,13.13-1.42,13.42999-1.54c-0.31,0.43-6.44,8.72-18.01999,8.38
				c-6.59-0.19-17.39999-2.94-25.72-5.35c-5.48999,13.31-17.34,19.75999-27.32001,19.75999c-8.79999,0-16.04001-5.02-16.04001-14.6
				c0-14.7,13.92001-18.71,26.62003-18.71c2.12,0,4.23999,0.11,6.23999,0.33c0-1.45,0.12-3.01,0.12-20.72
				c-3.45999,11.03-9.48001,17.82-15.82999,17.82c-9.91,0-12.25-7.02-12.25-15.93c0-7.69,1.66998-16.71,1.66998-23.95
				c0-7.58-1.78-13.15-9.35999-13.15c-0.89001,0-2,0-3.12,0.23c0.44998-7.36,7.12997-11.26,13.92999-11.26
				c7.69,0,15.60001,4.91,15.60001,15.04c0,2.12-1.90002,12.04-1.90002,20.17c0,6.13,1.12003,11.14,4.79001,11.14
				c1.89999,0,4.23999-2.67,6.35001-8.58c-0.22-8.91-0.78-16.82-2-18.94c0,0,7.23999-2.45,12.81-2.45c3.34,0,6.13,0.89,6.13,3.9
				c0,4.9-3.5,46.04-4.01001,49.68999c-0.04999,0.37-0.10001,0.71001-0.14999,1.06001c0.41,0.11,0.82001,0.23,1.20999,0.36
				C335.97,107.08,345.66,110.3,353.25,111.31z M300.29999,124.76c3.68002,0,8.58002-4.57,10.92001-15.6
				c-1.89999-0.33-3.79001-0.55-5.45999-0.55c-8.58002,0-11.48001,4.12-11.48001,8.13
				C294.28,120.75,297.17999,124.76,300.29999,124.76z"/>
			<path d="M311.22,109.16c-2.34,11.03-7.23999,15.6-10.92001,15.6c-3.12,0-6.01999-4.01-6.01999-8.02
				c0-4.00999,2.89999-8.13,11.48001-8.13C307.42999,108.61,309.32001,108.83,311.22,109.16z"/>
			<path class="st0" d="M271.89999,82.25c5.08002,0.51,7.51001,3.15,7.51001,6.2c0,5.08-8.63,9.65-17.87,9.65
				c-10.57001,0-21.94-5.99-21.94-23.97c0-14.53,11.56999-28.75,23.76999-28.75c11.88,0,17.67001,7.82,17.67001,15.85
				c0,8.33-6.30002,16.86-18.49002,16.86c-2.44,0-5.17999-0.31-8.01999-1.02c0,6.91,2.42999,12.8,8.42999,12.8
				C266.51001,89.87,270.17001,87.13,271.89999,82.25z M266.82001,60.82c0-2.13-0.81-3.66-1.92999-3.66
				c-5.08002,0-8.84003,7.01-9.96002,14.53C263.87,70.67,266.82001,64.78,266.82001,60.82z"/>
			<path d="M264.89001,57.16c1.12,0,1.92999,1.53,1.92999,3.66c0,3.96-2.95001,9.85-11.89001,10.87
				C256.04999,64.17,259.81,57.16,264.89001,57.16z"/>
			<path class="st0" d="M246.08,99.35c0,0-7.07001,6.05-12.5,6.05c-10.46001,0-12.62-8.2-12.62-17.94
				c0-6.35,0.92999-13.22,0.92999-18.86c0-6.56-1.23-11.28-6.36-11.28c-0.92,0-1.84,0.31-2.77,0.93
				c-0.61,5.74-1.33,13.22-1.33,20.29c0,8,1.03001,15.18,4.41,17.94c-3.89,0.62-7.17999,0.93-9.84,0.93
				c-7.17999,0-10.05-2.67001-10.05-10.77c0-3.69,1.54001-10.45,1.54001-18.76c0-5.23-0.62001-11.07-2.66-17.22
				c0,0,7.99001-4.41,13.42999-4.41c2.87001,0,5.02,1.13,5.02,4.82c0,0.51,0,1.13-0.10001,1.85
				C217.58,48.61,222.61,46.56,225.58,46.56c8.81,0,10.86,5.84,10.86,13.74c0,7.07-1.64,15.68-1.64,23.06
				C234.8,91.67,236.96001,98.43,246.08,99.35z"/>
			<path class="st0" d="M209.92999,30.85c0,4.16-1.76999,8.63-1.76999,8.63c-20.28,0.94-23.19,23.61-23.19,36.31
				c0,4.05,0.31,7.07,0.41,8.01c0.42,2.91,1.25,5.3,2.81,7.07c-2.7,0.52-5.62,1.04-8.43001,1.04
				c-5.2,0-9.56999-1.87-9.56999-9.57001c0-4.67999,0.83-11.13,0.83-19.04c0-5.92-0.62001-10.19-3.01001-15.81
				c0,0,6.14-4.47,11.65001-4.47c2.91,0,5.09999,1.14,5.09999,4.89v6.97c2.81001-16.33,8.53-31.31,18.41-31.31
				C208.58,23.57,209.92999,27.11,209.92999,30.85z"/>
			<path class="st0" d="M173.03,98.24c0,0-4.53999,6.75-14.78,6.75c-7.57001,0-11.41-10.13-13.03999-22.47
				C141.95,91.14,137.64,96.26,133.56,96.26c-13.27,0-16.29-15.95-16.29-30.38c0-9.67,1.39001-18.75,1.86-21.66
				c0,0,1.05-4.07,10.13-4.07c2.21001,0,4.89,0.23,8.15001,0.81c-1.98001,8.27-2.8,15.37-2.8,21.19c0,9.78,2.33,15.6,5.36,15.6
				c1.39,0,3.02-1.28,4.53999-4.19c-0.12-2.1-0.12-4.31-0.12-6.41c0-10.47,1.17-20.37,2.68001-25.61
				c0.23-1.74,3.60999-2.68,7.45-2.68c4.19,0,8.73,1.05,10.25,3.15c-1.63,1.98-4.78,15.13-4.78,28.29
				C159.99001,83.11,162.89999,95.79,173.03,98.24z"/>
			<path class="st0" d="M92.93,41.86c13.49,0,20.18,12.94,20.18,26.32c0,14.15-7.57,28.74-22.59,28.74
				C74.83,96.92,67.71,84.74,67.71,71.91C67.71,57.32,76.81,41.86,92.93,41.86z M91.5,87.38c4.94,0,7.02-6.68999,7.02-14.25999
				c0-10.09-3.60999-21.83-9.1-21.83c-3.62,0-6.03,9.32-6.03,18.43C83.39,78.6,85.69,87.38,91.5,87.38z"/>
			<path d="M98.52,73.12C98.52,80.69,96.44,87.38,91.5,87.38c-5.81,0-8.11-8.78-8.11-17.66c0-9.11,2.41-18.43,6.03-18.43
				C94.91,51.29,98.52,63.03,98.52,73.12z"/>
			<path class="st0" d="M62.4,95.4c4.59,1.45,6.03,4.23,6.03,7c0,5.07-4.58,10.5-4.58,10.5c-1.57-0.61-3.02-0.97-4.47-1.45
				c-5.79,14.23-18.69,21.11-29.43,21.11c-9.53,0-17.37-5.31-17.37-15.68999c0-11.21,8.69-21.59,35.59-22.55v-2.41
				c0-13.03001-0.97-42.95-5.31-47.53c0,0,11.34-5.19,17.97-5.19c2.66,0,4.59,0.85,4.59,3.26C65.42,52.82,63.97,75.38,62.4,95.4z
				 M46.48,108.91c-0.97-0.11-1.93-0.11-2.78-0.11c-10.25,0-13.87,4.93999-13.87,9.16c0,3.38,2.17,6.28,5.19,6.28
				C38.88,124.24,43.82,119.77,46.48,108.91z"/>
			<path class="st0" d="M53.11,12.77c7.6,0,10.74,4.59,10.74,9.53c0,5.55-4.1,11.46-10.74,11.46c-7.72,0-10.73-4.1-10.73-8.68
				C42.38,19.29,47.08,12.77,53.11,12.77z"/>
			<path d="M43.7,108.8c0.85,0,1.81,0,2.78,0.11C43.82,119.77,38.88,124.24,35.02,124.24c-3.02,0-5.19-2.9-5.19-6.28
				C29.83,113.74,33.45,108.8,43.7,108.8z"/>
		</g>
		<g>
		</g>
	</g>
</g>
</svg>
